<svg xmlns="http://www.w3.org/2000/svg" width="64" height="64"><path d="M14 9.5H8a1.5 1.5 0 0 0 0 3h6a1.5 1.5 0 0 0 0-3z"/><path d="M60 3.5H4A3.5 3.5 0 0 0 .5 7v50A3.5 3.5 0 0 0 4 60.5h56a3.5 3.5 0 0 0 3.5-3.5V7A3.5 3.5 0 0 0 60 3.5zM3.5 7a.5.5 0 0 1 .5-.5h56a.5.5 0 0 1 .5.5v8.5h-57zm57 50a.5.5 0 0 1-.5.5H4a.5.5 0 0 1-.5-.5V18.5h57z"/><path d="M56 29.5H44a1.5 1.5 0 0 0 0 3h12a1.5 1.5 0 0 0 0-3zM56 36.5H44a1.5 1.5 0 0 0 0 3h12a1.5 1.5 0 0 0 0-3zM56 50.5H44a1.5 1.5 0 0 0 0 3h12a1.5 1.5 0 0 0 0-3zM8 25.5h48a1.5 1.5 0 0 0 0-3H8a1.5 1.5 0 0 0 0 3zM56 43.5H44a1.5 1.5 0 0 0 0 3h12a1.5 1.5 0 0 0 0-3z"/><path d="M38 40.5a37.769 37.769 0 0 0-29.309 14H38a1.5 1.5 0 0 0 1.5-1.5V40.5z" style="fill:#3e3ef4"/><path d="M38 29.5H8A1.5 1.5 0 0 0 6.5 31v21.445C6.792 52.223 17.72 37.5 38 37.5h1.5V31a1.5 1.5 0 0 0-1.5-1.5zM12 37a2 2 0 1 1 2-2 2 2 0 0 1-2 2z" style="fill:#3e3ef4"/></svg>